<svg width="40" height="41" viewBox="0 0 40 41" fill="none" xmlns="http://www.w3.org/2000/svg">
<path d="M20.0013 32.167H6.66797M33.3346 8.83366H28.3346M33.3346 32.167H26.668M21.668 8.83366H6.66797M11.668 20.5003H6.66797M33.3346 20.5003H18.3346" stroke="#056BF0" stroke-width="2" stroke-linecap="round"/>
<path d="M26.6667 32.1667C26.6667 30.3257 25.1743 28.8333 23.3333 28.8333C21.4924 28.8333 20 30.3257 20 32.1667C20 34.0076 21.4924 35.5 23.3333 35.5C25.1743 35.5 26.6667 34.0076 26.6667 32.1667Z" stroke="#056BF0" stroke-width="2" stroke-linecap="round"/>
<path d="M18.3346 20.4997C18.3346 18.6587 16.8423 17.1663 15.0013 17.1663C13.1604 17.1663 11.668 18.6587 11.668 20.4997C11.668 22.3406 13.1604 23.833 15.0013 23.833C16.8423 23.833 18.3346 22.3406 18.3346 20.4997Z" stroke="#056BF0" stroke-width="2" stroke-linecap="round"/>
<path d="M28.3346 8.83366C28.3346 6.99271 26.8423 5.50033 25.0013 5.50033C23.1604 5.50033 21.668 6.99271 21.668 8.83366C21.668 10.6746 23.1604 12.167 25.0013 12.167C26.8423 12.167 28.3346 10.6746 28.3346 8.83366Z" stroke="#056BF0" stroke-width="2" stroke-linecap="round"/>
</svg>
